<svg xmlns="http://www.w3.org/2000/svg" width="130px" height="38.52px" viewBox="0 0 119.66 40"><defs><style>.cls-1{fill:#fff;}.cls-2{fill:#08082d;}</style></defs><title>order-th</title><g id="Layer_2" data-name="Layer 2"><g id="livetype"><path class="cls-1" d="M110.13,0H7.52a13.39,13.39,0,0,0-2,.18,6.64,6.64,0,0,0-1.9.63A6.07,6.07,0,0,0,2,2,6.07,6.07,0,0,0,.82,3.62a6.74,6.74,0,0,0-.63,1.9,12.18,12.18,0,0,0-.17,2c0,.31,0,.62,0,.92V31.56c0,.31,0,.61,0,.92a12.18,12.18,0,0,0,.17,2,6.7,6.7,0,0,0,.63,1.91A6,6,0,0,0,2,38a6.07,6.07,0,0,0,1.62,1.18,6.64,6.64,0,0,0,1.9.63,13.39,13.39,0,0,0,2,.18H112.14a13.39,13.39,0,0,0,2-.18,6.8,6.8,0,0,0,1.91-.63A6.24,6.24,0,0,0,117.67,38a6.31,6.31,0,0,0,1.8-3.52,13.39,13.39,0,0,0,.18-2c0-.31,0-.61,0-.92V8.44c0-.3,0-.61,0-.92a13.39,13.39,0,0,0-.18-2,6.72,6.72,0,0,0-.62-1.9,6.53,6.53,0,0,0-2.8-2.8,6.8,6.8,0,0,0-1.91-.63,13.39,13.39,0,0,0-2-.18h-2Z"/><path class="cls-2" d="M8.44,39.13l-.9,0A11.7,11.7,0,0,1,5.67,39,5.79,5.79,0,0,1,4,38.4a5.5,5.5,0,0,1-1.39-1,5.19,5.19,0,0,1-1-1.4,5.69,5.69,0,0,1-.55-1.66,13,13,0,0,1-.16-1.87c0-.21,0-.91,0-.91V8.44s0-.69,0-.89a13,13,0,0,1,.16-1.87A5.69,5.69,0,0,1,1.6,4a5.38,5.38,0,0,1,1-1.4A5.59,5.59,0,0,1,4,1.6a5.69,5.69,0,0,1,1.66-.55A13,13,0,0,1,7.54.89H112.13a13,13,0,0,1,1.86.16,5.85,5.85,0,0,1,1.67.55A5.58,5.58,0,0,1,118.07,4a5.92,5.92,0,0,1,.54,1.65,13.14,13.14,0,0,1,.17,1.88v.89c0,.38,0,.74,0,1.1V30.46c0,.37,0,.72,0,1.08v.93a12.72,12.72,0,0,1-.17,1.85,5.73,5.73,0,0,1-.54,1.67,5.6,5.6,0,0,1-1,1.39,5.41,5.41,0,0,1-1.4,1A5.69,5.69,0,0,1,114,39a11.8,11.8,0,0,1-1.87.16l-.9,0H8.44Z"/><path class="cls-1" d="M42.14,29.25V19.43H38.68V17.68h9v1.75H44.2v9.82Z"/><path class="cls-1" d="M54.38,26.71c-.26,1.6-1.75,2.71-3.76,2.71-2.55,0-4.09-1.68-4.09-4.39s1.55-4.46,4-4.46,3.92,1.68,3.92,4.26v.65H48.52v.12a2.08,2.08,0,0,0,2.14,2.28,1.82,1.82,0,0,0,1.85-1.17Zm-5.85-2.54h4a1.94,1.94,0,0,0-2-2.05A2,2,0,0,0,48.53,24.17Z"/><path class="cls-1" d="M55.8,17.68h2V29.25h-2Z"/><path class="cls-1" d="M67,26.71c-.26,1.6-1.75,2.71-3.76,2.71-2.55,0-4.09-1.68-4.09-4.39s1.56-4.46,4-4.46,3.92,1.68,3.92,4.26v.65H61.13v.12a2.08,2.08,0,0,0,2.14,2.28,1.81,1.81,0,0,0,1.85-1.17Zm-5.84-2.54h4a2,2,0,0,0-2-2.05A2,2,0,0,0,61.15,24.17Z"/><path class="cls-1" d="M68.29,29.89h2A1.88,1.88,0,0,0,72.16,31a1.8,1.8,0,0,0,2-1.81V27.74h0a2.87,2.87,0,0,1-2.66,1.52c-2.1,0-3.5-1.65-3.5-4.29s1.37-4.36,3.54-4.36a2.91,2.91,0,0,1,2.68,1.6h0V20.75h2v8.36c0,2-1.63,3.35-4.11,3.35C70,32.46,68.49,31.38,68.29,29.89ZM74.21,25c0-1.66-.83-2.73-2.1-2.73S70.05,23.31,70.05,25s.8,2.69,2.06,2.69S74.21,26.64,74.21,25Z"/><path class="cls-1" d="M77.83,20.75h1.92v1.48h0a2,2,0,0,1,2-1.62,2.4,2.4,0,0,1,.62.08v1.8a2.66,2.66,0,0,0-.81-.11,1.72,1.72,0,0,0-1.81,1.92v4.95h-2Z"/><path class="cls-1" d="M83,26.82c0-1.51,1.16-2.41,3.23-2.54l2.24-.13v-.61c0-.89-.6-1.4-1.58-1.4a1.51,1.51,0,0,0-1.68,1.16H83.32c.09-1.59,1.44-2.73,3.61-2.73s3.48,1.12,3.48,2.83v5.85H88.48V27.9h0a3,3,0,0,1-2.64,1.49A2.6,2.6,0,0,1,83,26.82Zm5.47-.72v-.65l-2,.12c-1,.06-1.52.5-1.52,1.17s.58,1.14,1.45,1.14A1.88,1.88,0,0,0,88.43,26.1Z"/><path class="cls-1" d="M92,20.75h1.92v1.48h0a2.5,2.5,0,0,1,2.42-1.64,2.29,2.29,0,0,1,2.37,1.71h0a2.75,2.75,0,0,1,2.65-1.71,2.64,2.64,0,0,1,2.77,2.83v5.83h-2V23.91a1.44,1.44,0,0,0-1.53-1.64A1.6,1.6,0,0,0,99.09,24v5.25H97.15V23.81a1.42,1.42,0,0,0-1.51-1.54A1.65,1.65,0,0,0,94,24.05v5.2H92Z"/><path class="cls-1" d="M44.73,14.63V9.51h0l-2.1,5.12h-.8l-2.1-5.12h0v5.12h-1v-7h1.24l2.26,5.55h0l2.25-5.55h1.25v7Z"/><path class="cls-1" d="M46.54,13.19c0-.89.68-1.43,1.88-1.5l1.39-.08v-.39c0-.57-.38-.9-1-.9a1,1,0,0,0-1.07.74h-1c.06-.92.84-1.59,2.09-1.59s2,.65,2,1.67v3.49h-1V13.8h0a1.83,1.83,0,0,1-1.6.92A1.54,1.54,0,0,1,46.54,13.19Zm3.27-.46v-.4l-1.25.08c-.62,0-1,.32-1,.75s.37.73.92.73A1.22,1.22,0,0,0,49.81,12.73Z"/><path class="cls-1" d="M55,9.56h1.23l-2.1,2.18,2.18,2.89H55.09l-1.72-2.25-.43.43v1.82h-1v-7h1v4.06h0Z"/><path class="cls-1" d="M60.94,13.14a2,2,0,0,1-2.18,1.59,2.32,2.32,0,0,1-2.39-2.61,2.36,2.36,0,0,1,2.35-2.65A2.25,2.25,0,0,1,61,12v.36H57.42v.06a1.33,1.33,0,0,0,1.36,1.46A1.16,1.16,0,0,0,60,13.14Zm-3.52-1.51H60a1.24,1.24,0,0,0-1.24-1.32A1.31,1.31,0,0,0,57.42,11.63Z"/><path class="cls-1" d="M63.58,12.09a2.41,2.41,0,1,1,4.81,0,2.42,2.42,0,1,1-4.81,0Zm3.75,0c0-1.12-.53-1.76-1.34-1.76s-1.35.64-1.35,1.76.53,1.78,1.35,1.78S67.33,13.22,67.33,12.09Z"/><path class="cls-1" d="M69.2,9.56h1v.86h0a1.23,1.23,0,0,1,1.22-.94,1.56,1.56,0,0,1,.36,0v1a1.65,1.65,0,0,0-.47-.05,1,1,0,0,0-1.08,1.16v3h-1Z"/><path class="cls-1" d="M72,12.09c0-1.6.85-2.61,2.13-2.61a1.74,1.74,0,0,1,1.59.92h0V7.67h1v7h-1v-.86h0a1.76,1.76,0,0,1-1.62,1C72.84,14.72,72,13.7,72,12.09Zm1.07,0c0,1.08.52,1.75,1.34,1.75s1.34-.68,1.34-1.75-.54-1.74-1.34-1.74S73.06,11,73.06,12.09Z"/><path class="cls-1" d="M82.19,13.14A2.06,2.06,0,0,1,80,14.73a2.32,2.32,0,0,1-2.39-2.61A2.36,2.36,0,0,1,80,9.47,2.25,2.25,0,0,1,82.24,12v.36H78.66v.06A1.33,1.33,0,0,0,80,13.88a1.15,1.15,0,0,0,1.17-.74Zm-3.52-1.51H81.2A1.24,1.24,0,0,0,80,10.31,1.3,1.3,0,0,0,78.67,11.63Z"/><path class="cls-1" d="M83.05,9.56h1v.86h0a1.21,1.21,0,0,1,1.22-.94,1.4,1.4,0,0,1,.35,0v1a1.65,1.65,0,0,0-.47-.05,1,1,0,0,0-1.08,1.16v3h-1Z"/><path class="cls-1" d="M88.15,9.47c1.19,0,1.95.65,2,1.59h-1a.91.91,0,0,0-1-.8c-.56,0-.94.27-.94.68s.24.53.79.66l.82.19c1,.24,1.43.64,1.43,1.38,0,.92-.86,1.56-2.06,1.56s-2-.62-2.12-1.59h1c.09.53.46.79,1.09.79s1-.26,1-.67-.19-.52-.75-.65l-.82-.19c-1-.22-1.44-.69-1.44-1.42C86.2,10.09,87,9.47,88.15,9.47Z"/><path class="cls-1" d="M95.57,14.63H94.45L92.62,9.56h1.11l1.28,4h0l1.28-4h1.09Z"/><path class="cls-1" d="M97.94,8.14a.6.6,0,1,1,.6.6A.6.6,0,0,1,97.94,8.14ZM98,9.56h1v5.07H98Z"/><path class="cls-1" d="M99.92,13.19c0-.89.68-1.43,1.89-1.5l1.39-.08v-.39c0-.57-.38-.9-1-.9a1,1,0,0,0-1.07.74h-1c.05-.92.83-1.59,2.09-1.59s2,.65,2,1.67v3.49h-1V13.8h0a1.81,1.81,0,0,1-1.6.92A1.54,1.54,0,0,1,99.92,13.19Zm3.28-.46v-.4l-1.25.08c-.62,0-1,.32-1,.75s.37.73.93.73A1.22,1.22,0,0,0,103.2,12.73Z"/><path class="cls-1" d="M6.38,20.2l5.2,1.94,2,6.47a.6.6,0,0,0,1,.29l2.9-2.36a.86.86,0,0,1,1.05,0l5.23,3.8a.62.62,0,0,0,1-.37l3.83-18.42a.62.62,0,0,0-.82-.7L6.38,19.05A.62.62,0,0,0,6.38,20.2Zm6.89.91,10.16-6.26a.18.18,0,0,1,.22.28l-8.39,7.79a1.84,1.84,0,0,0-.54,1l-.28,2.12a.27.27,0,0,1-.52,0l-1.1-3.86A1,1,0,0,1,13.27,21.11Z"/></g></g></svg>