<?xml version="1.0" encoding="UTF-8"?>
<svg width="426px" height="450px" viewBox="0 0 426 450" version="1.1" xmlns="http://www.w3.org/2000/svg" xmlns:xlink="http://www.w3.org/1999/xlink">
    <!-- Generator: Sketch 52.2 (67145) - http://www.bohemiancoding.com/sketch -->
    <title>LogoPE</title>
    <desc>Created with Sketch.</desc>
    <g id="Page-1" stroke="none" stroke-width="1" fill="none" fill-rule="evenodd">
        <g id="LogoPE">
            <rect id="Rectangle" fill="#000000" x="0.5" y="0.939" width="425" height="448.123"></rect>
            <path d="M116.719,380.771 L111.838,380.771 L111.838,420.688 L105.895,420.688 L105.895,374.83 L122.663,374.83 L122.663,420.688 L116.72,420.688 L116.72,380.771 L116.719,380.771 Z M139.304,408.803 L134.549,408.803 L133.173,420.69 L127.479,420.69 L133.423,374.832 L140.618,374.832 L146.624,420.69 L140.805,420.69 L139.304,408.803 Z M135.238,403.046 L138.617,403.046 L136.928,388.906 L135.238,403.046 Z M157.385,400.418 L157.385,420.689 L151.442,420.689 L151.442,374.83 L163.204,374.83 C164.706,374.83 166,375.372 167.083,376.456 C168.168,377.542 168.71,378.834 168.71,380.335 L168.71,394.912 C168.71,396.413 168.168,397.706 167.083,398.792 C166,399.876 164.706,400.418 163.204,400.418 L157.385,400.418 Z M157.385,380.585 L157.385,394.662 L161.327,394.662 C161.744,394.662 162.087,394.526 162.359,394.255 C162.63,393.985 162.765,393.643 162.765,393.223 L162.765,382.026 C162.765,381.61 162.63,381.264 162.359,380.995 C162.088,380.724 161.744,380.587 161.327,380.587 L157.385,380.585 Z M171.837,374.83 L187.54,374.83 L187.54,380.771 L182.659,380.771 L182.659,420.688 L176.716,420.688 L176.716,380.771 L171.837,380.771 L171.837,374.83 Z M204.309,374.83 L209.938,374.83 L209.938,420.688 L203.996,420.688 L203.996,403.108 L204.247,393.661 L204.184,393.661 L197.989,420.688 L192.36,420.688 L192.36,374.83 L198.303,374.83 L198.303,392.411 L198.053,401.857 L198.116,401.857 L204.309,374.83 Z M219.823,401.356 C218.737,400.981 217.852,400.324 217.165,399.384 C216.477,398.446 216.134,397.372 216.134,396.161 L216.134,380.333 C216.134,378.832 216.676,377.54 217.76,376.454 C218.845,375.37 220.137,374.828 221.638,374.828 L233.4,374.828 L233.4,420.685 L227.457,420.685 L227.457,401.67 L225.394,401.67 L219.074,420.69 L213.195,420.69 L219.823,401.356 Z M222.076,394.476 C222.076,394.893 222.212,395.238 222.481,395.508 C222.752,395.779 223.095,395.913 223.513,395.913 L227.453,395.913 L227.453,380.585 L223.513,380.585 C223.095,380.585 222.752,380.721 222.481,380.993 C222.21,381.264 222.076,381.607 222.076,382.025 L222.076,394.476 Z M251.166,374.83 L264.931,374.83 L264.931,380.771 L257.112,380.771 L257.112,394.849 L264.931,394.849 L264.931,400.607 L257.112,400.607 L257.112,414.745 L264.931,414.745 L264.931,420.687 L251.166,420.687 L251.166,374.83 Z M269.498,414.745 C269.791,412.535 270.029,409.948 270.219,406.988 C270.407,404.024 270.564,400.814 270.688,397.352 C270.813,393.89 270.907,390.242 270.97,386.404 C271.032,382.566 271.063,378.707 271.063,374.83 L286.58,374.83 L286.58,414.745 L289.083,414.745 L289.083,420.688 L267.437,420.688 L267.437,414.745 L269.498,414.745 Z M280.636,414.745 L280.636,380.771 L276.82,380.771 C276.777,382.734 276.716,385.214 276.632,388.215 C276.548,391.22 276.444,394.337 276.319,397.57 C276.195,400.801 276.037,403.952 275.849,407.016 C275.661,410.081 275.422,412.658 275.129,414.743 L280.636,414.745 Z M293.086,420.688 L293.086,374.83 L299.027,374.83 L299.027,394.036 L304.658,394.036 C306.16,394.036 307.452,394.578 308.538,395.664 C309.622,396.748 310.166,398.041 310.166,399.542 L310.166,415.182 C310.166,416.685 309.622,417.978 308.538,419.062 C307.452,420.148 306.16,420.69 304.658,420.69 L293.086,420.688 Z M320.988,420.688 L315.046,420.688 L315.046,374.83 L320.988,374.83 L320.988,420.688 Z M299.028,399.793 L299.028,414.932 L302.782,414.932 C303.199,414.932 303.545,414.799 303.815,414.528 C304.086,414.256 304.22,413.913 304.22,413.496 L304.22,401.23 C304.22,400.814 304.086,400.469 303.815,400.199 C303.544,399.928 303.199,399.793 302.782,399.793 L299.028,399.793 Z" id="Shape" fill="#FCFCFC" fill-rule="nonzero"></path>
            <polygon id="Path" fill="#FCFCFC" points="79.873 385.754 82.799 394.943 92.328 394.924 84.608 400.585 87.569 409.764 79.873 404.074 72.175 409.764 75.136 400.585 67.417 394.924 76.945 394.943"></polygon>
            <path d="M156.356,295.736 L164.686,295.967 C167.895,300.87 172.498,312.698 179.317,320.101 C178.346,316.521 172.609,306.355 170.042,297.297 C175.906,296.71 178.927,296.088 184.326,295.087 C189.361,299.426 189.18,307.615 212.529,307.881 C225.342,308.027 236.435,302.338 241.522,295.334 C247.141,296.23 250.251,297.483 256.473,297.082 C255.43,303.615 248.262,316.14 247.264,320.061 C250.237,316.839 252.52,312.606 254.955,308.653 C256.246,306.561 257.385,304.676 258.456,302.575 C259.507,300.512 260.621,297.858 261.895,296.01 L267.7,295.839 C265.297,311.523 259.976,322.318 247.763,331.357 L247.457,326.263 C245.814,328.088 244.202,333.595 242.641,336.144 C232.924,351.998 204.692,355.412 190.359,344.824 C182.289,338.861 181.939,332.439 178.942,326.7 L178.211,332.959 C170.106,327.27 157.927,304.243 156.356,295.736 Z M416.032,156.764 L416.034,156.762 C418.472,162.835 416.21,170.937 411.625,172.657 C406.414,174.612 403.62,167.44 376.48,183.376 C368.094,188.298 361.446,192.334 351.504,196.187 C340.74,200.356 337.784,200.11 329.137,207.034 C327.615,208.253 327.511,208.02 326.694,209.459 C338.609,202.891 327.988,206.223 346.733,199.45 C354.602,196.606 360.629,194.258 367.587,190.588 C382.398,182.778 393.858,172.973 410.983,175.15 C411.862,177.206 412.673,179.443 413.349,181.956 C413.931,178.075 412.158,175.863 414.05,173.61 C420.336,166.128 419.064,161.734 416.032,156.764 Z M402.314,147.529 L402.317,147.531 C395.393,148.812 386.123,154.502 382.74,156.373 L337.792,180.931 C330.954,184.619 321.735,189.679 314.907,192.443 L336.206,179.879 C343.505,175.774 351.052,171.608 358.54,167.449 C366.212,163.19 373.389,159.45 381.106,155.269 C387.51,151.799 394.07,147.918 402.314,147.529 Z M24.141,147.416 L24.141,147.42 C30.94,148.439 40.426,154.222 44.662,156.55 C58.863,164.353 99.744,187.428 112.171,192.442 C109.732,191.355 104.316,187.743 101.407,185.963 C85.813,176.416 62.174,164.066 45.642,155.092 C38.351,151.133 31.758,147.553 24.141,147.416 Z M234.979,211.619 C235.062,211.536 235.162,211.425 235.247,211.341 C237.753,208.854 238.087,208.366 241.826,206.825 L241.114,206.514 C238.044,205.9 234.676,208.485 234.041,212.52 L234.979,211.619 Z M151.727,229.91 C153.602,228.14 153.946,226.275 157.795,225.094 C158.44,224.895 158.71,224.927 159.274,224.674 C160.003,224.345 159.708,224.402 160.121,224.007 C155.357,222.782 151.413,224.798 151.727,229.91 Z M274.836,229.884 C275.072,224.593 271.442,222.593 266.425,224.022 C267.643,225.142 267.325,224.639 269.15,225.254 C272.944,226.537 272.805,228.264 274.836,229.884 Z M224.796,222.01 C225.692,230.134 224.779,229.696 222.786,236.457 C224.553,235.289 226.076,232.18 226.52,229.902 C227.227,226.307 226.482,224.232 224.796,222.01 Z M230.291,212.943 L229.098,214.534 C229.023,208.857 232.374,205.55 237.838,205.036 L236.695,206.317 C233.745,208.805 232.877,208.733 230.291,212.943 Z M269.062,263.756 C272.083,260.522 275.238,252.057 272.177,247.182 C272.092,250.577 271.932,253.147 271.188,256.403 C270.608,258.941 269.498,261.314 269.062,263.756 Z M224.07,218.405 C224.79,214.933 225.513,211.855 227.251,209.42 C229.056,206.89 231.754,205.216 233.166,203.71 C224.199,205.231 221.685,214.374 224.07,218.405 Z M207.248,256.915 C211.673,258.01 214.19,259.843 219.544,257.158 C221.251,256.303 220.806,256.271 221.86,255.413 C224.162,253.547 225.755,255.234 228.494,251.618 C221.672,253.284 223.454,251.146 219.724,249.165 C220.179,257.756 214.174,257.13 207.248,256.915 Z M272.308,233.693 C273.857,234.419 272.501,233.378 273.789,234.685 C274.076,234.976 274.594,235.851 274.818,236.21 C282.018,247.783 273.175,261.136 272.765,262.947 C273.229,254.951 279.059,249.691 272.308,233.693 Z M207.047,203.142 C212.761,202.214 213.824,202.316 219.492,203.14 C217.888,200.509 216.841,199.65 215.565,195.717 C214.835,193.459 213.652,189.256 213.335,186.916 C209.546,199.318 213.609,191.188 207.047,203.142 Z M196.791,175.595 C197.717,176.168 212.332,180.56 213.534,180.552 C215.466,180.538 228.609,176.091 229.727,175.196 C220.298,174.509 215.909,177.551 213.15,177.343 C209.973,177.104 205.416,174.039 196.791,175.595 Z M206.987,220.867 C207.943,215.371 206.8,208.359 203.476,205.267 C203.651,208.359 204.659,210.96 204.657,214.36 C204.652,222.932 200.764,221.173 206.019,235.965 L207.582,239.692 C208.42,233.17 205.653,228.538 206.987,220.867 Z M218.819,239.389 C218.553,232.391 220.886,228.285 219.564,220.897 C218.438,214.622 219.787,209.147 223.083,205.246 C222.821,208.168 221.964,210.794 221.895,213.849 C221.755,220.179 225.778,224.597 220.025,237.435 C218.777,240.22 220.674,236.402 219.645,238.213 C219.187,239.018 219.273,238.876 218.819,239.389 Z M235.774,333.627 L233.195,331.204 L231.875,333.941 C229.486,339.67 223.928,343.011 218.262,344.98 C217.812,345.136 217.186,345.314 216.746,345.486 C216.591,345.547 216.128,345.732 215.98,345.8 C214.303,346.577 215.601,345.904 214.872,346.415068 C225.241,346.44 237.709,339.595 240.794,330.129 C239.702,330.631 236.515,332.813 235.774,333.627 Z M243.258,118.558 C246.109,113.416 246.066,93.551 243.258,88.415 C240.191,93.071 240.13,113.802 243.258,118.558 Z M155.912,247.429 C155.664,238.584 162.081,232.391 169.051,230.299 C177.43,227.781 187.213,229.514 195.447,227.075 C189.478,234.499 166.851,227.421 158.511,241.931 L156.168,247.021 C156.107,247.13 156.009,247.299 155.912,247.429 Z M231.554,227.322 C240.113,228.747 250.564,228.056 258.284,230.551 C264.316,232.499 272.355,239.854 270.259,248.416 C267.218,233.187 255.107,232.881 243.134,231.09 C241.008,230.772 238.789,230.381 236.826,229.877 C232.895,228.867 232.585,228.361 231.554,227.322 Z M151.513,70.19 C154.878,73.479 156.524,72.532 161.572,79.441 C165.572,84.917 166.389,87.317 169.104,91.343 C169.328,88.394 168.995,85.358 169.014,82.383 C169.035,79.051 169.579,76.436 169.742,73.464 C163.373,73.098 162.014,69.445 159.824,64.432 C157.337,68.042 156.8,69.048 151.513,70.19 Z M158.83,228.836 C165.371,221.797 173.601,213.844 183.916,215.795 C185.848,216.161 187.372,216.822 189.022,217.251 C191.679,217.939 192.96,217.086 195.233,217.01 C192.802,224.676 184.879,221.286 176.797,222.43 C168.454,223.612 165.043,226.191 158.83,228.836 Z M231.33,216.988 C241.726,218.299 244.257,212.802 253.183,217.008 C259.267,219.876 263.02,224.339 267.745,228.829 C265.266,227.855 262.9,226.258 259.774,225.059 C249.815,221.245 247.082,222.64 238.703,222.213 C233.569,221.952 232.796,220.333 231.33,216.988 Z M221.692,82.887 C221.681,68.708 223.265,70.213 228.236,67.846 C232.591,65.771 230.859,65.21 235.335,67.123 C238.464,68.461 241.176,68.55 244.74,68.321 C243.643,69.891 243.005,70.482 242.348,72.872 C232.172,71.86 227.314,80.247 224.659,87.96 L221.93,96.28 L221.692,82.887 Z M211.31,107.805 C212.16,106.444 211.112,101.429 211.441,96.471 C211.873,89.996 213.207,82.19 215.332,76.106 C216.301,73.334 218.514,70.064 218.268,67.55 C210.379,66.024 202.58,81.631 206.566,97.361 C207.841,102.397 209.417,104.562 211.31,107.805 Z M229.877,245.189 C236.593,246.355 247.741,258.877 249.646,265.71 C247.697,262.633 245.384,259.644 243.235,257.194 C241.864,255.631 237.055,251.307 234.839,250.327 C234.582,256.626 231.807,258.442 226.61,260.209 C223.952,261.112 217.672,269.156 206.199,264.033 C203.452,262.805 202.189,261.088 200.316,260.345 C194.955,258.233 191.853,257.188 191.734,250.315 C185.36,252.881 179.991,261.877 177.251,264.878 C178.694,259.94 182.458,255.993 185.189,253.003 C186.876,251.159 193.064,245.735 196.671,245.199 C195.889,247.026 190.892,254.094 199.219,256.895 C206.272,259.268 200.383,256.532 205.513,260.149 C209.412,262.899 216.424,263.309 220.831,260.44 C224.773,257.873 219.945,259.057 226.958,256.963 C235.965,254.28 230.345,246.475 229.877,245.189 Z M172.943,72.494 C178.583,75.67 179.617,77.727 183.045,81.652 L191.869,93.103 C191.61,86.372 191.089,74.794 193.154,68.923 C191.662,68.203 187.621,67.444 185.438,66.653 C182.621,65.631 180.494,64.276 178.139,63.294 C177.89,70.611 178.078,69.143 172.943,72.494 Z M101.931,339.077 L115.099,337.719 C114.825,326.903 126.605,310.223 128.281,303.211 L114.488,312.27 C113.313,313.507 112.991,316.188 112.259,318.096 C109.196,326.066 103.395,335.182 101.931,339.077 Z M312.004,337.531 L325.133,339.206 C323.939,335.828 317.787,325.738 314.964,318.457 C312.102,311.081 314.693,313.616 308.36,309.423 C305.701,307.661 301.558,304.516 298.797,303.209 C300.513,310.259 312.218,326.902 312.004,337.531 Z M134.323,97.946 C136.316,93.339 140.822,88.87 139.839,82.309 C142.753,83.523 145.378,85.778 149.546,86.027 C154.124,86.3 157.279,84.685 159.939,88.144 C162.188,91.067 166.143,102.098 167.188,106.742 C159.014,100.979 146.854,96.606 134.323,97.946 Z M203.433,319.128 C202.318,321.93 196.683,323.137 194.946,328.283 C206.446,322.529 220.048,322.91 231.63,328.275 C228.728,320.7 216.588,320.277 228.115,315.091 C233.662,312.599 235.215,310.683 238.755,307.57 C240.433,306.092 241.724,304.243 242.852,301.939 C240.875,302.92 239.102,305.058 236.761,306.585 C234.603,307.991 232.57,309.396 230.083,310.47 C220.197,314.734 204.444,315.857 194.48,310.976 C189.343,308.457 186.591,304.248 182.836,301.072 C184.935,306.961 190.728,313.308 196.817,315.713 C199.814,316.896 202.273,316.825 203.433,319.128 Z M284.997,65.751 C287.309,70.948 298.064,75.714 307.663,72.745 C311.687,71.499 311.983,70.952 313.758,67.743 C315.537,64.524 320.305,56.953 320.509,53.174 C320.828,47.254 315.241,41.949 311.269,40.484 C311.086,55.904 300.783,66.316 284.997,65.751 Z M242.399,191.831 C244.446,193.804 247.25,195.787 247.131,199.647 C245.729,198.212 246.796,198.549 244.308,196.183 C242.98,194.92 242.2,194.032 242.399,191.831 Z M234.879,188.877 C237.193,192.611 240.887,193.345 240.672,198.765 C239.594,197.688 239.946,197.715 238.992,196.482 C237.607,194.696 234.211,193.031 234.879,188.877 Z M230.343,195.55 C228.598,192.854 225.11,192.043 225.784,187.299 C229.994,193.096 232.651,192.708 232.182,198.221 C231.284,197.241 230.998,196.563 230.343,195.55 Z M255.971,192.608 L255.321,189.708 L263.456,194.295 L263.401,190.76 C274.033,192.7 274.914,204.3 269.621,212.749 C269.714,207.829 270.529,204.077 266.874,201.413 C267.409,205.196 267.407,207.174 266.693,210.831 C265.046,211.511 264.137,209.816 261.223,208.569 C261.11,210.123 261.253,211.169 260.317,212.506 C259.415,210.066 256.81,208.183 254.34,206.88 L253.566,209.037 C251.007,206.394 248.8,205.556 244.77,203.739 L243.888,205.668 C242.379,203.318 238.609,201.358 234.697,200.265 C233.622,201.3 233.754,201.342 233.265,202.828 C231.358,201.729 229.577,199.633 227.139,198.749 L226.352,201.059 C220.271,196.262 220.098,184.915 224.304,182.126 C226.703,184.343 227.492,185.912 232.283,187.277 L232.276,182.957 C234.157,184.281 234.93,185.172 237.373,186.484 C239.207,187.469 241.363,188.041 243.079,189.109 C244.291,188.368 243.169,189.203 243.925,188.365 C244.323,187.927 244.309,187.772 244.77,187.235 C247.742,188.959 252.266,191.536 255.971,192.608 Z M179.286,199.496 C178.62,197.997 179.479,196.605 180.489,195.419 C181.172,194.619 181.495,194.385 182.21,193.631 L183.947,191.949 C183.553,194.693 183.396,194.736 181.81,196.23 C180.303,197.65 180.674,197.627 179.286,199.496 Z M185.834,198.732 C184.532,195.786 187.384,192.861 189.29,191.119 L190.928,189.655 C190.995,189.592 191.183,189.556 191.232,189.373 C191.283,189.185 191.437,189.175 191.54,189.076 C191.268,194.229 188.717,193.417 185.834,198.732 Z M193.98,198.293 C193.727,193.024 196.849,191.136 200.6,187.467 C200.502,190.445 199.378,192.177 197.852,193.626 C196,195.389 195.62,196.25 193.98,198.293 Z M170.905,192.672 C173.41,190.693 179.168,189.509 181.099,187.081 C181.202,187.174 181.337,187.198 181.382,187.386 C181.404,187.49 181.809,187.852 181.917,187.973 C182.927,189.118 181.746,188.068 182.812,189.01 C185.868,187.965 188.691,186.906 191.257,185.02 L193.977,182.86 L193.964,187.214 C198.741,186.193 200.243,183.235 202.564,182.082 C206.251,190.394 205.327,195.699 200.041,201.26 C201.348,205.174 202.332,209.865 201.747,214.793 C200.61,212.6 198.904,206.205 195.907,204.069 L196.601,208.279 C189.747,201.674 187.123,201.385 182.126,205.572 C181.747,203.498 182.125,204.667 181.301,203.786 C178.06,205.106 174.404,206.571 173.388,209.124 L171.729,206.899 C168.767,209.047 167.691,209.482 165.821,212.425 C165.742,212.307 165.672,211.967 165.645,212.037 L165.207,210.799 C164.887,209.69 165.144,209.823 164.678,208.694 L159.611,211.565 C159.203,207.578 158.449,205.382 159.46,201.367 C155.963,203.027 156.237,208.512 156.63,212.533 L154.068,206.821 C153.497,204.317 153.321,201.55 153.845,198.955 C154.792,194.277 158.057,191.497 162.778,190.74 L162.58,194.154 C165.367,193.257 168.209,191.344 170.248,189.749 L170.493,191.062 C170.656,192.069 169.279,191.811 170.905,192.672 Z M227.139,37.688 C226.201,38.53 225.651,39.45 224.845,40.308 C217.003,48.668 211.29,50.265 199.515,51.098 C203.517,55.8 215.221,56.595 222.54,56.06 C230.016,55.512 231.504,53.611 233.52,53.172 C233.855,53.098 241.478,56.288 243.614,56.834 C251.934,58.962 267.1,60.628 275.569,57.797 C281.01,55.978 279.441,54.892 281.78,49.864 L284.831,44.843 C279.435,44.641 269.308,39.686 265.738,37.223 C261.349,34.195 256.562,28.623 252.55,25.7 C251.239,24.746 252.8,25.587 251.154,24.799 C257.321,37.68 240.402,46.391 227.139,37.688 Z M189.701,292.968 L193.451,297.914 C198.951,302.455 205.564,302.764 213.048,302.792 C218.268,302.813 222.3,302.07 226.768,300.102 C229.447,298.919 234.925,296.043 236.336,293.307 C232.87,292.677 193.972,292.495 189.701,292.968 Z M124.885,336.383 L138.742,301.77 C142.529,292.455 140.638,296.985 146.034,292.938 C143.65,290.409 143.705,290.645 140.243,292.686 C138.513,293.707 136.639,294.624 134.686,295.696 C119.821,303.856 98.705,319.268 85.463,329.584 C82.891,331.59 68.558,342.23 66.928,344.272 C84.652,344.553 103.855,342.412 121.244,340.201 C142.565,337.485 156.205,328.58 165.292,326.317 C163.101,322.045 159.975,318.157 158.273,313.426 C157.628,314.239 158.329,312.793 157.43,314.864 C155.995,318.176 155.701,323.093 156.553,326.321 C148.577,329.729 134.193,335.229 124.885,336.383 Z M279.854,291.818 C280.019,291.933 280.944,292.961 281.266,293.195 L285.123,295.381 C286.884,296.651 291.666,310.032 292.692,312.526 L302.187,336.381 C292.694,335.212 278.704,329.757 270.509,326.326 C271.509,322.615 270.918,316.318 268.945,313.14 C267.604,315.206 266.629,317.88 265.213,319.927 C263.744,322.052 261.928,323.882 260.964,325.795 C273,331.246 290.775,338.252 305.391,340.138 C322.904,342.402 342.32,344.554 360.147,344.269 C359.028,342.864 357.294,341.708 355.533,340.347 L341.329,329.361 C332.013,322.121 311.733,307.244 301.905,301.292 L285.889,292.114 C283.364,290.604 282.187,290.84 279.854,291.818 Z M206.93,280.875 C213.248,282.9 211.743,282.98 218.88,282.053 C221.164,284.661 221.592,285.6 224.471,287.789 L200.897,287.76 C202.284,285.688 203.87,286.663 206.93,280.875 Z M285.636,258.143 C283.946,256.423 285.646,254.36 285.857,248.088 C285.997,243.856 285.2,239.781 287.503,236.631 C288.948,243.137 287.504,252.268 285.636,258.143 Z M296.201,224.367 C292.775,231.031 303.472,241.193 306.188,249.758 L291.371,257.952 C289.207,259.109 290.339,258.234 289.158,260.242 C287.092,263.749 286.345,262.226 283.258,262.48 L281.773,266.814 L309.711,251.126 C310.581,249.467 297.826,227.338 296.201,224.367 Z M120.887,249.757 C123.92,251.509 127.53,253.514 130.834,255.268 C132.372,256.084 134.484,257.196 135.711,257.946 C138.818,259.848 135.953,259.221 138.572,263.141 L117.259,251.319 C116.95,248.303 122.418,240.096 123.954,237.09 C126.273,232.555 129.637,227.641 131.333,223.351 C134.134,225.825 132.808,227.578 131.67,229.71 C130.457,231.984 129.274,234.104 128.102,236.223 C126.233,239.609 121.87,246.643 120.887,249.757 Z M316.801,247.438 C312.058,241.901 312.093,228.789 316.899,219.986 C318.254,217.502 320.079,214.382 322.422,213.584 C323.285,217.595 317.591,217.192 315.266,228.518 C312.995,239.576 318.216,245.107 316.801,247.438 Z M104.656,213.583 C104.135,215.771 104.963,215.876 106.299,217.337 C117.681,229.78 109.151,245.591 110.278,247.441 C115.01,241.904 114.996,228.786 110.181,219.983 C108.835,217.523 107.078,214.404 104.656,213.583 Z M137.707,207.242 C128.885,207.153 133.552,214.826 135.516,219.345 C136.799,222.295 140.524,230.115 142.276,232.276 C143.936,224.689 139.498,213.997 137.707,207.242 Z M289.031,220.95 C288.957,217.565 289.917,215.214 288.938,213.629 C288.083,215.291 286.96,216.375 285.759,217.797 C286.409,212.028 286.072,207.862 289.136,206.333 C299,201.417 291.315,218.243 289.031,220.95 Z M113.598,247.295 C115.064,247.034 118.33,239.734 119.306,238.002 C121.221,234.606 122.938,231.197 124.812,227.886 C127.476,223.188 129.995,220.146 129.128,217.227 C127.068,210.276 126.462,211.638 129.108,204.923 L113.149,198.611 L106.761,210.326 C107.899,212.423 110.417,214.813 112.038,217.654 C115.767,224.182 117.039,231.054 115.344,238.58 C114.964,240.269 114.598,241.634 113.974,243.247 C112.223,247.781 112.59,246.41 113.598,247.295 Z M298.93,204.786 L313.717,198.542 L320.339,210.315 C317.531,215.403 308.351,222.472 311.642,238.175 C312.589,242.69 313.139,242.71 313.859,245.08 C314.595,247.501 314.628,246.286 313.479,247.294 C312.015,247.033 308.756,239.747 307.775,238.003 C305.872,234.626 304.145,231.19 302.266,227.889 C301.391,226.348 296.983,218.709 296.861,217.745 C296.585,215.544 299.777,211.648 298.93,204.786 Z M298.1,203.878 L309.359,197.832 C312.279,196.104 312.038,197.01 312.168,195.374 C310.3,196.019 306.554,198.231 304.749,199.287 C300.826,201.582 298.617,201.73 298.1,203.878 Z M114.904,195.372 C117.076,196.112 129.514,202.796 130.535,204.362 C128.717,204.469 119.383,198.709 116.432,197.112 C113.65,195.606 115.52,197.118 114.904,195.372 Z M329.55,195.216 C328.229,189.972 335.743,188.716 336.525,193.285 C337.386,198.318 330.474,198.877 329.55,195.216 Z M90.611,195.216 C89.138,189.834 96.79,188.829 97.607,193.319 C98.555,198.503 91.631,198.948 90.611,195.216 Z M280.841,244.075 C280.831,250.652 280.521,253.17 277.97,258.648 L272.655,268.435 C272.262,268.961 272.583,268.564 272.184,269.017 C271.701,269.568 271.826,269.424 271.343,269.851 C270.738,268.211 270.322,267.902 268.737,267.142 C269.131,271.923 268.508,274.619 268.034,279.054 C260.172,277.564 242.021,272.491 234.988,267.467 C233.206,266.193 233.316,265.837 231.752,264.421 L230.786,266.697 C228.995,265.259 229.827,265.448 228.729,263.854 C227.599,265.46 227.901,266.282 227.284,268.067 L225.428,265.298 C225.324,265.182 225.206,265.074 225.103,264.971 C224.996,264.862 224.832,264.737 224.738,264.647 C224.642,264.555 224.494,264.418 224.352,264.327 L222.511,268.393 L221.309,265.856 C220.296,267.293 220.202,268.459 219.585,269.598 L217.746,267.139 C215.354,270.608 216.52,274.495 216.673,278.231 C213.364,278.643 211.492,278.635 208.978,276.813 C208.763,274.572 209.368,270.725 208.096,268.166 C207.77,267.515 207.722,267.524 207.496,267.27 L205.648,269.286 C205.561,269.36 205.414,269.489 205.284,269.573 C205.031,267.504 205.21,267.393 203.971,266.059 C203.331,266.815 202.846,267.686 202.178,268.446 C202.095,266.8 201.079,265.487 200.349,264.36 C199.057,265.823 199.523,266.626 197.833,268.028 C197.457,266.434 197.549,265.262 196.415,263.967 C195.894,264.749 195.249,265.969 194.834,266.738 C193.755,265.967 195.092,267.447 193.816,265.323 L193.391,264.552 C186.175,272.192 165.366,277.831 155.502,279.461 L154.262,271.136 C154.209,271.227 154.063,271.242 154.018,271.449 C153.975,271.652 153.794,271.689 153.737,271.771 C153.008,272.832 153.588,271.782 153.089,272.812 C152.225,274.605 152.086,277.722 151.182,279.416 C150.693,276.576 149.901,273.9 149.391,270.95 C148.912,268.156 149.203,262.542 148.685,261.094 C147.807,258.629 146.369,256.842 145.536,253.668 C144.7,250.482 144.576,247.025 145.127,243.662 C147.965,226.325 149.04,225.014 149.035,205.287 L148.943,197.624 C146.829,200.724 146.184,209.157 145.076,213.312 C143.237,210.377 138.668,193.838 140.202,189.879 C142.375,184.274 152.775,180.066 158.223,178.199 C187.146,168.293 235.198,168.349 264.266,177.737 C287.279,185.169 284.342,191.016 282.893,201.58 C282.296,205.93 281.814,210.557 280.925,214.79 C279.667,211.959 280.071,189.036 272.673,183.704 C277.767,198.284 274.881,203.61 276.027,214.353 C276.575,219.491 279.356,222.365 280.064,227.415 C280.74,232.241 280.846,239.054 280.841,244.075 Z M369.174,177.586 C367.558,181.623 360.493,179.59 362.524,174.467 C364.043,170.634 371.132,172.695 369.174,177.586 Z M57.624,176.579 C57.141,171.591 64.437,170.929 64.812,175.65 C65.24,181.049 58.037,180.862 57.624,176.579 Z M400.631,161.48 C393.158,162.562 394.454,155.961 397.286,154.786 C399.388,153.914 401.318,155.174 401.941,156.441 C403.009,158.612 401.567,160.016 400.631,161.48 Z M26.447,161.48 C25.566,160.118 24.198,158.97 24.982,156.79 C25.542,155.237 27.628,153.886 29.791,154.785 C32.616,155.96 33.921,162.562 26.447,161.48 Z M100.385,209.459 C88.789,203.063 98.899,206.13 80.718,199.582 C58.103,191.436 59.577,189.835 40.683,180.176 C33.097,176.297 26.068,173.876 16.101,175.153 C15.205,177.183 14.395,179.444 13.73,181.966 C13.131,178.076 14.927,175.872 13.026,173.61 C5.653,164.829 8.557,160.153 13.444,153.058 C11.128,156.601 8.392,161.775 10.767,167.286 C14.238,175.34 19.192,172.487 23.521,172.738 C39.893,173.689 55.48,188.408 75.571,196.187 C84.92,199.806 90.086,200.583 97.665,206.812 C99.425,208.255 99.447,207.81 100.385,209.459 Z M290.396,123.829 C292.625,119.437 299.933,114.912 303.531,114.176 C301.296,119.517 296.198,123.104 290.396,123.829 Z M152.056,38.911 C160.181,35.148 167.737,29.898 175.081,25.314 C194.683,13.081 217.741,2.646 241.513,13.115 C252.438,17.928 258.367,24.389 266.26,31.675 C267.645,32.954 267.852,33.695 269.527,34.961 C273.698,38.109 279.902,43.143 287.673,42.123 C284.469,39.87 281.016,39.573 278.038,36.547 L283.17,35.655 C284.906,35.391 286.534,35.057 288.292,34.736 C292.063,34.046 295.777,33.494 299.671,33.319 C314.843,32.64 328.228,43.906 324.734,56.566 C323.678,60.396 317.322,70.97 315.579,72.088 C321.383,71.567 324.517,62.296 330.146,69.023 C336.584,76.714 334.508,96.391 324.439,103.109 C320.046,106.039 300.742,105.709 290.141,116.159 C288.173,118.099 286.315,119.378 284.986,122.617 C283.731,125.683 284.197,130.235 284.197,133.763 C284.197,149.77 284.051,165.843 284.212,181.842 C257.092,162.943 202.962,162.753 171.123,169.382 C161.616,171.362 154.428,173.325 146.137,177.666 C143.518,179.036 141.775,180.495 139.744,181.871 C139.296,177.338 139.632,171.212 139.632,166.505 C139.632,154.145 137.084,147.857 158.058,138.244 C185.674,125.589 226.163,126.024 255.697,134.434 C259.894,135.63 260.931,136.027 261.249,140.85 C261.488,144.469 260.845,148.829 260.357,152.422 C259.191,161.047 259.108,161.43 246.006,162.898 C247.656,163.919 252.343,164.391 254.881,164.959 C269.716,168.275 275.474,171.993 279.407,172.992 L279.366,139.502 C272.464,134.181 263.732,132.058 260.238,129.73 C269.118,129.754 275.089,132.141 279.426,132.393 L279.398,127.721 C279.49,113.806 294.197,105.866 307.036,102.329 C316.329,99.769 321.851,101.885 325.934,94.526 C328.502,89.893 331.148,77.471 326.872,73.037 C324.175,74.754 319.825,80.989 308.443,83.141 C309.967,81.905 312.553,78.946 313.131,75.984 C305.418,76.369 299.936,77.272 292.468,74.986 C283.183,72.145 281.946,68.168 279.022,65.876 C273.447,67.922 269.879,69.666 263.293,68.164 C262.303,73.884 257.356,77.63 253.55,80.084 C250.141,82.281 250.03,81.563 248.882,86.009 C248.111,88.984 247.887,92.891 249.304,95.414 C251.856,92.803 252.434,89.115 255.722,87.286 C267.303,80.838 263.08,115.49 262.736,121.527 C262.445,126.602 259.572,127.438 254.364,127.815 C245.731,128.439 227.839,124.571 210.518,124.601 C196.5,124.62 182.395,126.33 169.497,130.03 C161.557,132.308 152.111,136.04 145.631,140.905 C143.184,142.741 141.43,144.928 139.66,146.257 C139.484,138.041 139.215,131.012 139.341,122.697 C139.403,118.586 139.795,114.958 138.266,111.342 C137.05,108.466 134.679,105.553 132.571,104.65 C133.351,109.998 135.562,116.534 130.933,119.64 C125.977,120.368 121.04,114.911 119.45,111.512 C116.489,105.191 118.569,101.035 120.309,95.494 C123.059,97.03 125.746,100.945 130.722,101.391 C121.088,92.172 117.837,83.031 114.281,69.815 C111.413,74.426 114.212,82.773 115.429,87.44 C99.376,84.134 99.957,67.816 104.549,56.499 C112.012,38.103 128.73,44.631 138.88,43.108 L132.869,39.549 C134.293,34.297 138.984,29.754 143.765,27.736 C151.821,24.336 155.467,25.621 163.386,27.31 C162.739,28.794 163.33,27.858 162.266,29.106 C161.871,29.568 161.21,30.096 160.704,30.553 C159.613,31.536 158.884,32.211 157.808,33.202 C156.076,34.791 153.516,36.703 152.056,38.911 Z M127.403,37.87 C110.626,37.824 102.807,44.423 98.514,58.017 C96.429,64.62 95.785,72.271 98.053,78.969 C100.053,84.875 105.079,90.714 108.939,92.745 C107.505,105.414 107.162,113.512 113.926,123.064 C116.568,126.793 119.532,129.747 123.159,132.481 C124.743,133.677 134.233,138.784 134.455,139.807 C134.979,142.237 134.466,179.797 134.451,187.66 C134.438,193.855 135.403,196.692 136.02,202.175 C133.754,201.8 122.052,194.948 119.116,193.394 C114.066,190.724 120.862,191.668 113.552,187.902 L88.537,174.134 C79.567,169.282 43.881,149.203 37.992,146.608 C20.817,139.038 9.754,144.906 3.013,157.489 C-2.279,167.369 3.947,177.995 11.496,183.715 C14.326,185.858 17.49,183.478 23.153,184.022 C33.321,185.001 50.081,196.008 58.747,200.421 C70.637,206.478 83.918,209.153 95.34,215.707 C97.177,216.761 99.1,218.655 101.35,218.945 C103.43,219.214 101.117,217.816 103.035,219.121 C108.161,222.609 109.318,233.279 108.281,239.045 C107.589,242.895 105.794,245.91 105.177,249.085 C111.52,251.584 132.94,264.128 140.011,268.253 C145.66,271.546 144.679,270.906 146.232,280.512 C141.543,280.266 136.914,279.239 133.815,275.949 L131.207,272.536 C130.853,274.853 130.831,275.171 131.918,277.182 C130.139,276.408 128.354,274.884 127.903,272.201 C127.132,267.586 129.98,268.237 131.549,266.274 C127.101,265.033 126.672,266.086 124.15,268.483 C124.146,268.436 124.005,267.598 123.998,267.588 C122.81,265.911 124.565,266.672 123.134,267.165 C120.957,272.437 124.254,278.259 127.005,281.24 C129.477,283.918 132.722,284.674 137.909,289.847 C114.75,301.783 87.683,322.749 66.968,339.286 C63.909,341.727 59.77,344.633 57.508,347.192 C74.249,349.58 100.832,346.403 117.83,344.264 C131.867,342.499 143.048,338.901 155.789,333.926 C159.435,332.502 164.311,330.063 167.848,329.137 C170.825,334.756 177.473,337.665 181.075,342.51 C193.401,359.083 224.721,360.344 239.975,346.582 L248.711,337.184 C252.306,334.6 255.158,331.58 258.367,328.702 C278.058,335.399 284.942,341.194 308.313,344.145 C325.543,346.325 352.645,349.627 369.566,347.192 C362.633,339.337 309.585,301.546 299.256,295.358 C296.94,293.966 289.599,290.553 288.163,288.903 C289.563,288.067 289.504,288.251 290.596,286.884 C293.492,283.266 295.492,285.08 298.861,280.534 C301.953,276.362 303.795,271.905 301.665,266.152 L300.524,268.447 C299.144,265.929 297.422,265.114 293.676,266.349 C295.096,268.115 297.382,267.732 297.395,271.267 C297.404,273.761 295.353,276.06 293.489,276.956 C294.18,275.018 294.713,274.588 293.629,272.731 C291.358,275.52 291.16,277.145 287.107,278.844 C284.073,280.116 279.806,280.887 276.179,280.298 C277.098,273.981 279.11,272.52 284.496,269.699 C288.892,267.396 292.49,265.199 296.732,262.804 C300.846,260.484 304.845,258.248 308.982,255.911 C312.391,253.985 318.372,250.448 321.903,249.08 C320.794,243.37 314.197,231.705 322.398,220.932 L324.27,218.964 C325.126,218.549 324.349,218.889 324.965,218.869 C325.712,218.846 325.398,219.404 327.881,217.923 C345.095,207.658 353.067,208.077 367.992,200.582 C372.926,198.105 376.896,195.656 381.682,193.115 C393.307,186.941 398.096,182.654 414.013,184.805 C416.463,184.244 433.298,170.334 421.951,154.029 C413.652,142.101 401.6,140.928 388.726,146.757 C381.742,149.918 374.909,154.209 368.203,157.952 C367.421,158.389 310.53,188.87 309.859,190.1 C309.464,190.822 309.919,190.23 309.859,191.411 L309.81,191.961 C309.787,192.019 309.721,192.157 309.687,192.211 C309.395,192.671 296.171,200.209 294.533,200.477 C292.32,200.839 291.067,200.373 288.174,201.131 C288.52,195.351 289.347,191.333 289.346,185.134 L289.343,131.999 C307.902,132.84 311.55,113.013 314.361,111.037 C318.365,108.221 331.713,112.898 337.599,92.079 C341.054,79.863 338.226,65.5 328.489,61.761 C330.124,55.834 331.697,52.496 329.26,45.743 C323.49,29.764 305.938,26.66 289.855,29.2 C274.227,31.667 275.767,32.849 265.183,23.674 C259.522,18.767 260.279,18.379 251.908,12.784 C248.681,10.628 243.037,7.866 238.534,6.515 C213.122,-1.102 190.284,8.874 171.662,21.358 C169.05,23.111 168.838,24.302 165.754,22.913 C154.025,17.634 138.538,21.131 131.022,31.609 C129.634,33.542 128.743,36.229 127.403,37.87 Z" id="Shape" fill="#FCFCFC" fill-rule="nonzero"></path>
            <polygon id="Path" fill="#FCFCFC" points="347.077 385.754 350.005 394.943 359.532 394.924 351.814 400.585 354.774 409.764 347.077 404.074 339.381 409.764 342.343 400.585 334.622 394.924 344.152 394.943"></polygon>
            <g id="Group" transform="translate(105.000000, 424.000000)" fill="#FCFCFC">
                <path d="M2.522,8.54 C3.76,7.266 5.357,6.627 7.312,6.627 C9.265,6.627 10.861,7.266 12.101,8.54 C13.341,9.778 13.961,11.299 13.961,13.1 C13.961,14.901 13.341,16.419 12.101,17.66 C10.844,18.918 9.248,19.545 7.312,19.545 C5.377,19.545 3.78,18.918 2.522,17.66 C1.281,16.42 0.662,14.899 0.662,13.1 C0.662,11.299 1.281,9.778 2.522,8.54 Z M12.077,13.1 C12.077,11.742 11.626,10.594 10.725,9.66 C9.825,8.743 8.687,8.285 7.311,8.285 C5.935,8.285 4.797,8.743 3.898,9.66 C2.997,10.595 2.547,11.742 2.547,13.1 C2.547,14.44 2.997,15.58 3.898,16.514 C4.797,17.431 5.935,17.889 7.311,17.889 C8.686,17.889 9.825,17.431 10.725,16.514 C11.626,15.58 12.077,14.439 12.077,13.1 Z" id="Shape" fill-rule="nonzero"></path>
                <polygon id="Path" points="19.209 19.239 17.374 19.239 17.374 6.933 19.209 6.933 19.209 12.108 26.775 12.108 26.775 6.933 28.61 6.933 28.61 19.239 26.775 19.239 26.775 13.762 19.209 13.762"></polygon>
                <path d="M31.311,19.239 L31.311,17.557 C31.396,17.575 31.556,17.583 31.796,17.583 C32.865,17.583 33.595,16.903 33.987,15.545 C34.31,14.459 34.513,12.896 34.599,10.857 L34.7,6.933 L43.898,6.933 L43.898,19.239 L42.064,19.239 L42.064,8.54 L36.458,8.54 L36.382,10.909 C36.348,11.826 36.316,12.488 36.28,12.896 C36.127,14.56 35.881,15.784 35.542,16.566 C35.236,17.38 34.77,18.046 34.142,18.565 C33.514,19.084 32.748,19.317 31.85,19.266 C31.574,19.266 31.396,19.256 31.311,19.239 Z" id="Path"></path>
                <path d="M51.873,19.544 C50.562,19.544 49.451,19.187 48.533,18.475 C47.634,17.729 47.184,16.726 47.184,15.468 C47.184,14.23 47.659,13.236 48.611,12.488 C49.562,11.759 50.768,11.393 52.229,11.393 C53.825,11.393 55.303,11.792 56.661,12.589 L56.661,11.366 C56.661,9.312 55.312,8.284 52.611,8.284 C51.167,8.284 49.825,8.7 48.585,9.53 L48.585,7.746 C49.791,7.001 51.261,6.627 52.992,6.627 C54.674,6.627 56.011,7.023 57.004,7.812 C57.999,8.6 58.496,9.728 58.496,11.187 L58.496,16.258 C58.496,16.734 58.6,17.108 58.814,17.378 C59.027,17.649 59.312,17.786 59.668,17.786 C59.939,17.786 60.179,17.734 60.382,17.633 L60.382,19.061 C60.11,19.246 59.702,19.339 59.158,19.339 C58.546,19.339 58.033,19.174 57.616,18.842 C57.199,18.513 56.941,18.024 56.84,17.379 C55.599,18.823 53.943,19.544 51.873,19.544 Z M52.381,17.889 C53.232,17.889 54.038,17.693 54.802,17.302 C55.566,16.913 56.186,16.418 56.662,15.825 L56.662,14.119 C55.405,13.301 54.071,12.893 52.662,12.893 C51.54,12.893 50.652,13.114 49.999,13.555 C49.346,13.997 49.019,14.599 49.019,15.365 C49.019,16.162 49.332,16.783 49.961,17.223 C50.588,17.67 51.396,17.889 52.381,17.889 Z" id="Shape" fill-rule="nonzero"></path>
                <path d="M65.07,19.239 L63.362,19.239 L63.362,6.933 L65.196,6.933 L65.196,16.538 L73.068,6.933 L74.776,6.933 L74.776,19.239 L72.942,19.239 L72.942,9.66 L65.07,19.239 Z M69.094,4.845 C67.853,4.845 66.852,4.491 66.087,3.786 C65.323,3.08 64.932,2.143 64.916,0.97 L66.546,0.97 C66.546,1.685 66.775,2.261 67.233,2.703 C67.691,3.144 68.304,3.365 69.069,3.365 C69.816,3.365 70.418,3.144 70.876,2.703 C71.334,2.263 71.572,1.684 71.591,0.97 L73.196,0.97 C73.177,2.125 72.789,3.059 72.024,3.775 C71.259,4.488 70.283,4.845 69.094,4.845 Z" id="Shape" fill-rule="nonzero"></path>
                <polygon id="Path" points="80.941 19.239 79.107 19.239 79.107 6.933 80.941 6.933 80.941 12.108 88.508 12.108 88.508 6.933 90.343 6.933 90.343 19.239 88.508 19.239 88.508 13.762 80.941 13.762"></polygon>
                <path d="M103.233,17.277 L103.233,24.335 L101.398,24.335 L101.398,6.934 L103.233,6.934 L103.233,8.897 C104.386,7.384 105.975,6.629 107.997,6.629 C109.815,6.629 111.302,7.258 112.457,8.515 C113.612,9.773 114.189,11.29 114.189,13.075 C114.189,14.877 113.612,16.404 112.457,17.661 C111.302,18.919 109.815,19.547 107.997,19.547 C105.975,19.544 104.388,18.788 103.233,17.277 Z M103.233,11.062 L103.233,15.112 C103.589,15.926 104.168,16.594 104.965,17.113 C105.764,17.631 106.63,17.889 107.564,17.889 C108.939,17.889 110.07,17.431 110.953,16.514 C111.852,15.563 112.305,14.415 112.305,13.074 C112.305,11.731 111.853,10.594 110.953,9.66 C110.07,8.743 108.939,8.285 107.564,8.285 C106.647,8.285 105.791,8.543 104.992,9.06 C104.193,9.579 103.608,10.246 103.233,11.062 Z" id="Shape" fill-rule="nonzero"></path>
                <path d="M123.488,19.544 C121.569,19.544 119.955,18.941 118.647,17.735 C117.356,16.547 116.711,15.002 116.711,13.099 C116.711,11.264 117.287,9.727 118.443,8.488 C119.615,7.251 121.115,6.629 122.951,6.629 C123.937,6.629 124.811,6.829 125.578,7.229 C126.341,7.628 126.945,8.15 127.386,8.796 C127.825,9.443 128.157,10.126 128.38,10.846 C128.6,11.568 128.709,12.295 128.709,13.026 L128.709,13.535 L118.595,13.535 C118.697,14.861 119.228,15.917 120.19,16.708 C121.147,17.498 122.366,17.892 123.844,17.892 C125.271,17.892 126.588,17.51 127.793,16.747 L127.793,18.376 C126.79,19.154 125.355,19.544 123.488,19.544 Z M118.621,12.029 L126.85,12.029 C126.798,11.08 126.443,10.221 125.781,9.457 C125.152,8.676 124.184,8.284 122.877,8.284 C121.654,8.284 120.651,8.657 119.871,9.404 C119.106,10.17 118.688,11.046 118.621,12.029 Z" id="Shape" fill-rule="nonzero"></path>
                <path d="M137.806,19.544 C135.921,19.544 134.359,18.934 133.119,17.709 C131.878,16.471 131.259,14.926 131.259,13.073 C131.259,11.238 131.885,9.71 133.146,8.487 C134.384,7.249 135.948,6.627 137.833,6.627 C139.26,6.627 140.499,6.925 141.554,7.518 L141.554,9.225 C140.449,8.597 139.296,8.284 138.089,8.284 C136.661,8.284 135.482,8.742 134.547,9.659 C133.611,10.543 133.147,11.686 133.147,13.099 C133.147,14.475 133.612,15.62 134.547,16.538 C135.498,17.437 136.678,17.888 138.089,17.888 C139.445,17.888 140.679,17.53 141.782,16.818 L141.782,18.5 C140.625,19.196 139.301,19.544 137.806,19.544 Z" id="Path"></path>
                <polygon id="Path" points="150.112 19.239 148.277 19.239 148.277 8.54 143.819 8.54 143.819 6.934 154.571 6.934 154.571 8.54 150.112 8.54"></polygon>
                <path d="M158.036,8.54 C159.273,7.266 160.871,6.627 162.823,6.627 C164.776,6.627 166.375,7.266 167.613,8.54 C168.85,9.778 169.472,11.299 169.472,13.1 C169.472,14.901 168.85,16.419 167.613,17.66 C166.355,18.918 164.759,19.545 162.823,19.545 C160.887,19.545 159.289,18.918 158.036,17.66 C156.794,16.42 156.175,14.899 156.175,13.1 C156.175,11.299 156.794,9.778 158.036,8.54 Z M167.587,13.1 C167.587,11.742 167.139,10.594 166.237,9.66 C165.34,8.743 164.2,8.285 162.826,8.285 C161.449,8.285 160.311,8.743 159.412,9.66 C158.512,10.595 158.062,11.742 158.062,13.1 C158.062,14.44 158.511,15.58 159.412,16.514 C160.311,17.431 161.449,17.889 162.826,17.889 C164.2,17.889 165.34,17.431 166.237,16.514 C167.139,15.58 167.587,14.439 167.587,13.1 Z" id="Shape" fill-rule="nonzero"></path>
                <path d="M174.723,17.277 L174.723,24.335 L172.889,24.335 L172.889,6.934 L174.723,6.934 L174.723,8.897 C175.878,7.384 177.465,6.629 179.486,6.629 C181.304,6.629 182.792,7.258 183.945,8.515 C185.102,9.773 185.68,11.29 185.68,13.075 C185.68,14.877 185.102,16.404 183.945,17.661 C182.792,18.919 181.304,19.547 179.486,19.547 C177.465,19.544 175.878,18.788 174.723,17.277 Z M174.723,11.062 L174.723,15.112 C175.08,15.926 175.657,16.594 176.455,17.113 C177.251,17.631 178.12,17.889 179.055,17.889 C180.432,17.889 181.558,17.431 182.444,16.514 C183.343,15.563 183.793,14.415 183.793,13.074 C183.793,11.731 183.344,10.594 182.444,9.66 C181.558,8.743 180.432,8.285 179.055,8.285 C178.139,8.285 177.28,8.543 176.483,9.06 C175.684,9.579 175.097,10.246 174.723,11.062 Z" id="Shape" fill-rule="nonzero"></path>
                <path d="M192.735,19.544 C191.427,19.544 190.315,19.187 189.396,18.475 C188.497,17.729 188.046,16.726 188.046,15.468 C188.046,14.23 188.52,13.236 189.473,12.488 C190.424,11.759 191.63,11.393 193.09,11.393 C194.686,11.393 196.163,11.792 197.525,12.589 L197.525,11.366 C197.525,9.312 196.173,8.284 193.472,8.284 C192.029,8.284 190.687,8.7 189.448,9.53 L189.448,7.746 C190.654,7.001 192.123,6.627 193.856,6.627 C195.538,6.627 196.873,7.023 197.868,7.812 C198.862,8.6 199.359,9.728 199.359,11.187 L199.359,16.258 C199.359,16.734 199.463,17.108 199.677,17.378 C199.887,17.649 200.172,17.786 200.53,17.786 C200.801,17.786 201.041,17.734 201.244,17.633 L201.244,19.061 C200.972,19.246 200.564,19.339 200.02,19.339 C199.411,19.339 198.895,19.174 198.481,18.842 C198.06,18.513 197.802,18.024 197.703,17.379 C196.462,18.823 194.807,19.544 192.735,19.544 Z M193.242,17.889 C194.094,17.889 194.9,17.693 195.663,17.302 C196.431,16.913 197.049,16.418 197.524,15.825 L197.524,14.119 C196.266,13.301 194.932,12.893 193.523,12.893 C192.403,12.893 191.513,13.114 190.861,13.555 C190.208,13.997 189.88,14.599 189.88,15.365 C189.88,16.162 190.195,16.783 190.825,17.223 C191.452,17.67 192.26,17.889 193.242,17.889 Z" id="Shape" fill-rule="nonzero"></path>
                <polygon id="Path" points="206.058 19.239 204.224 19.239 204.224 6.933 206.058 6.933 206.058 12.108 213.627 12.108 213.627 6.933 215.461 6.933 215.461 19.239 213.627 19.239 213.627 13.762 206.058 13.762"></polygon>
            </g>
        </g>
    </g>
</svg>